<svg xmlns="http://www.w3.org/2000/svg" width="136.281" height="143.551" viewBox="0 0 136.281 143.551"><defs><style>.a{fill:#3f3d56;}.b{opacity:0.2;}.c{fill:#e03621;}.d{fill:#fff;}.e{fill:#2f2e41;}.f{fill:#fbbebe;}.g{fill:#575a89;}</style></defs><g transform="translate(0)"><path class="a" d="M467.709,99.5h-.735V79.371a11.648,11.648,0,0,0-11.648-11.648H412.689a11.648,11.648,0,0,0-11.648,11.648V189.779a11.648,11.648,0,0,0,11.648,11.648h42.638a11.648,11.648,0,0,0,11.648-11.648V113.822h.735Z" transform="translate(-370.257 -67.723)"/><rect class="a" width="134.81" height="0.376" transform="translate(0.046 128.215)"/><path class="b" d="M478.4,92.565V202.811a8.691,8.691,0,0,1-8.7,8.7H426.86a8.693,8.693,0,0,1-8.7-8.7V92.564a8.693,8.693,0,0,1,8.7-8.7h5.2a4.132,4.132,0,0,0,3.827,5.693h24.427a4.132,4.132,0,0,0,3.827-5.693H469.7a8.691,8.691,0,0,1,8.7,8.7Z" transform="translate(-384.162 -80.835)"/><path class="a" d="M273.963,690.608l-.2-.076a11.754,11.754,0,0,1-7.559-14.019l.048-.21.2.076a11.754,11.754,0,0,1,7.559,14.019Zm-6.387-5.788a13.168,13.168,0,0,0,6.111,5.275,11.335,11.335,0,0,0-7.161-13.28A13.185,13.185,0,0,0,267.576,684.82Z" transform="translate(-260.527 -562.038)"/><path class="c" d="M245.38,708.7a13.435,13.435,0,0,1,5.139,6.666,11.567,11.567,0,0,1-13.436-8.083A13.434,13.434,0,0,1,245.38,708.7Z" transform="translate(-237.084 -587.082)"/><path class="a" d="M459.486,83.866V211.509h-2.11a8.616,8.616,0,0,1-1.645-.156V84.022a8.617,8.617,0,0,1,1.645-.156Z" transform="translate(-414.678 -80.835)"/><rect class="a" width="3.755" height="121.951" transform="translate(61.331 8.724)"/><path class="a" d="M692.486,84.4v126.57a8.672,8.672,0,0,1-3.015.537h-.74V83.866h.74a8.673,8.673,0,0,1,3.015.537Z" transform="translate(-603.931 -80.835)"/><rect class="a" width="60.24" height="3.755" transform="translate(33.999 24.285)"/><rect class="a" width="60.24" height="3.755" transform="translate(33.999 66.906)"/><rect class="a" width="30.229" height="3.755" transform="translate(62.082 87.935)"/><rect class="a" width="32.908" height="3.755" transform="translate(61.331 40.245)"/><path class="a" d="M211.123,133.935l-.436.252L208.41,135.5l-16.523,9.54-3.755,2.169-7.054,4.072v-4.337l7.054-4.072,3.755-2.167,11.29-6.519,5.233-3.021.836-.483Z" transform="translate(-147.079 -106.146)"/><rect class="a" width="60.24" height="3.755" transform="translate(33.999 108.025)"/><path class="c" d="M621.916,189.658c0,11.925-21.592,38.49-21.592,38.49s-21.592-26.565-21.592-38.49a21.592,21.592,0,1,1,43.184,0Z" transform="translate(-514.584 -149.226)"/><circle class="b" cx="12.768" cy="12.768" r="12.768" transform="translate(72.972 26.726)"/><circle class="d" cx="4.757" cy="4.757" r="4.757" transform="translate(80.563 35.021)"/><path class="d" d="M669.871,316.362a7.135,7.135,0,1,0-14.012,0Z" transform="translate(-577.125 -262.787)"/><path class="e" d="M765.352,186.9s-3.392-1.212-5.573,3.635a95.566,95.566,0,0,1-5.573,10.177l1.938.485s.485-3.392,1.7-3.877l-.485,4.362s14.539,5.089,21.081-.485l-.242-1.7s.969.242.969,1.7l.727-.727a13.024,13.024,0,0,0-2.908-3.392c-1.431-1.272-1.923-3.693-2.092-5.206a6.3,6.3,0,0,0-1.451-3.431C771.991,186.76,769.35,184.975,765.352,186.9Z" transform="translate(-657.111 -163.846)"/><path class="f" d="M885.433,336.566s6.384,5.445,7.323,8.637-3.567,3.567-3.567,3.567l-9.763.939s-.188,4.506-1.878,5.07-.343-7.452-.343-7.452l9.543-2.687-4.318-4.506Z" transform="translate(-756.603 -286.088)"/><path class="f" d="M735.113,366.566l-.751,9.951-4.131,16.9s-3.755,7.7-.563,7.886,3-7.323,3-7.323l6.008-15.959.563-10.89Z" transform="translate(-636.137 -310.456)"/><path class="f" d="M545.148,680.406v7.323l4.506-1.127-1.314-6.759Z" transform="translate(-442.792 -552.197)"/><path class="f" d="M673.148,680.406v7.323l4.506-1.127-1.314-6.759Z" transform="translate(-546.759 -552.197)"/><circle class="f" cx="6.196" cy="6.196" r="6.196" transform="translate(103.295 26.257)"/><path class="f" d="M796.817,256.566s2.253,8.074-1.314,10.139,9.012,3.567,12.392-2.629c0,0-6.008-2.065-4.318-7.51Z" transform="translate(-690.143 -221.109)"/><path class="g" d="M765.986,313.941l-1.127-.376s-2.253.939-2.253,2.629-.375,8.449-.375,8.449l5.069.563Z" transform="translate(-663.63 -267.407)"/><path class="e" d="M759.427,422.5s-6.2,7.9-6.2,17.471,1.5,44.311,1.5,44.311,5.633,2.629,9.012-.563l3-39.429,11.829,40.744s5.633,1.127,8.261-.751L781.77,458s-.188-31.168-5.82-33.421S759.427,422.5,759.427,422.5Z" transform="translate(-656.32 -355.885)"/><path class="e" d="M782.976,773.53s-4.882-2.629-5.257.939-.563,5.821-.563,5.821-.563,4.318,4.694,3.38,3.38-3.567,3.38-3.567-1.878-3-1.878-3.755A26.084,26.084,0,0,0,782.976,773.53Z" transform="translate(-675.738 -640.251)"/><path class="e" d="M901.4,770.928s4.443-3.317,5.338.157,1.412,5.675,1.412,5.675,1.191,4.189-4.147,4.032-3.867-3.032-3.867-3.032,1.416-3.247,1.306-3.99A26.06,26.06,0,0,1,901.4,770.928Z" transform="translate(-775.494 -637.735)"/><path class="g" d="M873.358,300.241s2.441-1.314,4.882,1.5l4.882,5.633-3.755,4.131-7.135-4.318Z" transform="translate(-752.977 -256.335)"/><path class="e" d="M783.6,208.85a16.968,16.968,0,0,0,5.143-5.591s4.025,4.473,6.485,4.7.224-5.367.224-5.367l-4.473-1.118-4.249.447-3.354,2.236Z" transform="translate(-680.809 -176.358)"/><path class="g" d="M791.815,294.566s-2.628,4.154-10.514,2.171l-4.475,1.233-.595.164s.563,11.266,2.065,13.331,1.127,3.192.751,3.38-1.314-.188-.751.751,1.314.376.563.939-1.127,2.629-1.127,2.629l17.649,2.253s-.563-7.323.939-11.078a48.407,48.407,0,0,0,1.878-5.257l-1.127-9.388Z" transform="translate(-675.002 -251.974)"/><circle class="c" cx="5.821" cy="5.821" r="5.821" transform="translate(79.796 81.866)"/></g></svg>