<svg xmlns="http://www.w3.org/2000/svg" xmlns:xlink="http://www.w3.org/1999/xlink" width="82" height="82" viewBox="0 0 82 82"><defs><style>.a{fill:url(#a);}.b,.c{fill:#fff;}.b{stroke:#aa2d2d;stroke-width:2px;}.d{fill:#aa2d2d;}.e{stroke:none;}.f{fill:none;}</style><linearGradient id="a" x1="0.5" x2="0.5" y2="1" gradientUnits="objectBoundingBox"><stop offset="0" stop-color="#ffce9d"/><stop offset="1" stop-color="#f84339"/></linearGradient></defs><g transform="translate(-96 -188.5)"><g transform="translate(96 188.5)"><path class="a" d="M41,0A41,41,0,1,1,0,41,41,41,0,0,1,41,0Z" transform="translate(0 0)"/><g class="b" transform="translate(69.706 4.781) rotate(45)"><rect class="e" width="10.175" height="92.213" rx="4"/><rect class="f" x="1" y="1" width="8.175" height="90.213" rx="3"/></g><g class="b" transform="translate(76.901 69.986) rotate(135)"><rect class="e" width="10.175" height="92.213" rx="4"/><rect class="f" x="1" y="1" width="8.175" height="90.213" rx="3"/></g><circle class="c" cx="26.601" cy="26.601" r="26.601" transform="translate(14.643 14.643)"/></g><path class="d" d="M19.462,4.035l9.525,9.525a13.463,13.463,0,1,1-19.034,0Z" transform="translate(117.634 209.351)"/></g></svg>